<svg id="Layer_1" data-name="Layer 1" xmlns="http://www.w3.org/2000/svg" viewBox="0 0 1562.5 883.05"><defs><style>.cls-1{fill:#d8bb93;fill-rule:evenodd;}.cls-2{fill:#0d3155;}</style></defs><title>logo</title><polygon class="cls-1" points="655.94 249.65 886.47 249.65 895.27 237.57 647.13 237.57 655.94 249.65"/><path class="cls-1" d="M1528.92,1268a13.59,13.59,0,1,1,13.58-13.57,13.57,13.57,0,0,1-13.58,13.57m-124.41,18.32h248.82l-62.2-36-62.21-36-62.21,36Z" transform="translate(-757.71 -1058.46)"/><path class="cls-1" d="M1489,1499.65V1525a190.35,190.35,0,0,0,21.35,3.21V1331.48h4.83l8.67-11.9h-48.32l8.65,11.9H1489Z" transform="translate(-757.71 -1058.46)"/><path class="cls-1" d="M1547.42,1503.33v24.86a189.66,189.66,0,0,0,21.35-3.21v-193.5h4.83l8.67-11.9H1534l8.65,11.9h4.82Z" transform="translate(-757.71 -1058.46)"/><path class="cls-1" d="M1388.69,1551.68a12.8,12.8,0,0,1,9-3.79v0a12.72,12.72,0,1,1-9,21.7,12.84,12.84,0,0,1-3.77-9,12.56,12.56,0,0,1,3.77-8.94m32-14a32.2,32.2,0,0,0-23-9.52l0,0a32.66,32.66,0,0,0-18.34,5.61,250.21,250.21,0,0,1-67-325.61L1290.93,1196a274.78,274.78,0,0,0,74.87,358.55,33,33,0,0,0-.56,6.15,32.45,32.45,0,1,0,55.4-23Z" transform="translate(-757.71 -1058.46)"/><path class="cls-1" d="M1780.38,1339.71a12.77,12.77,0,0,1,4.66-17.42,12.84,12.84,0,0,1,17.4,4.69,12.8,12.8,0,0,1-4.7,17.41,12.85,12.85,0,0,1-17.38-4.68Zm-82.2,177.8a249.15,249.15,0,0,1-169.26,65.94v24.74A275,275,0,0,0,1802.07,1364a31.74,31.74,0,0,0,5.57-2.58,32.45,32.45,0,1,0-44.37-11.85l0,0a32.13,32.13,0,0,0,14,13A249.61,249.61,0,0,1,1698.18,1517.51Z" transform="translate(-757.71 -1058.46)"/><path class="cls-1" d="M1408.71,1112.36a12.75,12.75,0,1,1,1.25-9.64,12.71,12.71,0,0,1-1.25,9.64Zm195.1-17.69a249.28,249.28,0,0,1,141.75,113.6l21.35-12.35a274.81,274.81,0,0,0-348-114.45,33.19,33.19,0,0,0-5-3.56,32.44,32.44,0,1,0,11.91,44.35v0a32.1,32.1,0,0,0,4.26-18.69A249.62,249.62,0,0,1,1603.81,1094.67Z" transform="translate(-757.71 -1058.46)"/><path class="cls-1" d="M1408,1454.24a171,171,0,1,1,241.82,0,173.63,173.63,0,0,1-22.67,19V1331.48H1632l8.67-11.9h-48.32l8.65,11.9h4.82v181.89a195.38,195.38,0,1,0-153.79,0V1331.48h4.83l8.67-11.9h-48.32l8.65,11.9h4.82v141.81a174.2,174.2,0,0,1-22.66-19" transform="translate(-757.71 -1058.46)"/><path class="cls-2" d="M2320.21,1686.49v144.08h-26.76v-61.75h-74.51v61.75h-26.76V1686.49h26.76V1746h74.51v-59.5Zm-215.74,146.15q-21.81,0-39.43-9.6a70.47,70.47,0,0,1-27.58-26.45c-6.65-11.22-10-23.95-10-38s3.37-26.86,10.08-38.09a71.23,71.23,0,0,1,27.69-26.45q17.63-9.6,39.43-9.56a82.17,82.17,0,0,1,32.3,6.15,65.85,65.85,0,0,1,24.7,17.93l-17.27,16.25q-15.67-16.9-38.51-16.88a54,54,0,0,0-26.55,6.49,46.63,46.63,0,0,0-18.32,18,55.12,55.12,0,0,0,0,52.27,46.63,46.63,0,0,0,18.32,18,54,54,0,0,0,26.55,6.49q22.86,0,38.51-17.05l17.27,16.47a65.62,65.62,0,0,1-24.8,17.88A82.84,82.84,0,0,1,2104.47,1832.64Zm-100.68-24.49v22.42H1895.73V1686.49H2000.9v22.45h-78.41v37.46h69.56v22h-69.56v39.75Zm-207.5-99h-47.76v-22.66H1870.8v22.66h-47.75v121.42h-26.76Zm-147.61,28.61q0-13.79-9-21.21c-6.05-5-14.88-7.4-26.55-7.4h-31.29v57.42h31.29c11.67,0,20.5-2.53,26.55-7.53S1648.68,1747,1648.68,1737.76Zm.62,92.81-29.44-42.21a46.16,46.16,0,0,1-5.55.21h-32.52v42H1555V1686.49h59.28q18.75,0,32.62,6.19c9.27,4.12,16.36,10,21.31,17.67s7.4,16.84,7.4,27.41c0,10.81-2.64,20.16-7.92,28s-12.87,13.64-22.74,17.51l33.13,47.32Zm-128.88-22.42v22.42H1412.37V1686.49h105.18v22.45h-78.43v37.46h69.57v22h-69.57v39.75Zm-184.64-28.44v50.86H1309v-50.44l-56.61-93.64H1281l42.21,70.18,42.6-70.18h26.34Zm-87.1-93.22-47.75,144.08h-28.4L1136.91,1724l-36.24,106.62h-28.6l-47.76-144.08h27.8L1087.93,1796l37.24-109.52h24.7l36.44,110.1,36.84-110.1ZM971.4,1776.22l-27.17-63-27,63Zm8.86,21H908.2L894,1830.57H866.43l64.82-144.08h26.37l65,144.08h-28ZM757.71,1686.49h26.76v121.45h75.35v22.63H757.71Z" transform="translate(-757.71 -1058.46)"/><path class="cls-2" d="M1930.31,1932.15v8.56h-41.42v-55.17h40.29v8.6h-30v14.35h26.63v8.44h-26.63v15.22Zm-84.79-27c0-3.53-1.17-6.24-3.47-8.11s-5.7-2.86-10.17-2.86h-12v22h12c4.47,0,7.86-1,10.17-2.91A10,10,0,0,0,1845.52,1905.16Zm.25,35.55-11.29-16.13c-.48,0-1.18.08-2.12.08H1819.9v16h-10.27v-55.17h22.73a30.49,30.49,0,0,1,12.49,2.37,18.13,18.13,0,0,1,8.15,6.77,20.6,20.6,0,0,1-.18,21.21,18,18,0,0,1-8.71,6.7l12.68,18.12Zm-69.17-8.56v8.56h-41.4v-55.17h40.29v8.6h-30v14.35h26.64v8.44h-26.64v15.22Zm-77.84-46.61v55.17h-10.25v-23.66H1660v23.66h-10.24v-55.17H1660v22.78h28.55v-22.78Zm-107.24,0v55.17h-8.44l-30.44-37.38v37.38h-10.17v-55.17h8.42l30.46,37.38v-37.38Zm-97.32,34.39-10.4-24.16-10.33,24.16Zm3.39,8H1470l-5.45,12.76H1454l24.85-55.17h10.08l24.93,55.17h-10.73ZM1417,1912.48h9.69v22a31,31,0,0,1-9.93,5.19,38.13,38.13,0,0,1-11.67,1.8,31.45,31.45,0,0,1-15.22-3.66,27.45,27.45,0,0,1-14.51-24.7,27.73,27.73,0,0,1,3.87-14.6,27.25,27.25,0,0,1,10.68-10.15,31.88,31.88,0,0,1,15.35-3.65,33.37,33.37,0,0,1,12.6,2.28,24.92,24.92,0,0,1,9.54,6.7l-6.47,6.32a20.74,20.74,0,0,0-15.21-6.32,21.54,21.54,0,0,0-10.36,2.45,17.84,17.84,0,0,0-7.11,6.86,19.91,19.91,0,0,0-2.56,10.11,19.33,19.33,0,0,0,2.56,9.89,18.41,18.41,0,0,0,7.11,7,20.57,20.57,0,0,0,10.29,2.53,22.31,22.31,0,0,0,11.35-2.83Zm-99.91,20A19.89,19.89,0,0,0,1327,1930a18.09,18.09,0,0,0,6.93-6.9,19.88,19.88,0,0,0,2.53-10,19.62,19.62,0,0,0-2.53-10,17.88,17.88,0,0,0-6.93-7,21.07,21.07,0,0,0-19.87,0,18,18,0,0,0-7,7,19.81,19.81,0,0,0-2.51,10,20.08,20.08,0,0,0,2.51,10,18.21,18.21,0,0,0,7,6.9A19.88,19.88,0,0,0,1317.09,1932.52Zm0,9a31.4,31.4,0,0,1-15.22-3.66,27.19,27.19,0,0,1-10.65-10.19,29.3,29.3,0,0,1,0-29.07,27.19,27.19,0,0,1,10.65-10.19,33.54,33.54,0,0,1,30.43,0,27.37,27.37,0,0,1,10.65,10.15,29.45,29.45,0,0,1,0,29.15,27.37,27.37,0,0,1-10.65,10.15A31.33,31.33,0,0,1,1317.09,1941.51Zm-93.6-56h10.24v46.52h28.86v8.65h-39.1Zm-54.1,56a42.13,42.13,0,0,1-12.35-1.8,25.54,25.54,0,0,1-9.42-4.82l3.54-7.94a28.71,28.71,0,0,0,8.33,4.37,30.4,30.4,0,0,0,9.9,1.7c4.09,0,7.15-.66,9.17-2a5.92,5.92,0,0,0,3-5.19,5.09,5.09,0,0,0-1.68-3.91,11.6,11.6,0,0,0-4.3-2.41c-1.73-.58-4.1-1.21-7.09-2a83,83,0,0,1-10.21-3,17,17,0,0,1-6.72-4.7c-1.85-2.12-2.79-5-2.79-8.65a14.85,14.85,0,0,1,2.48-8.31,16.7,16.7,0,0,1,7.49-6,30.79,30.79,0,0,1,12.26-2.2A40.11,40.11,0,0,1,1181,1886a29.48,29.48,0,0,1,8.44,3.62l-3.24,8a32.73,32.73,0,0,0-7.57-3.24,27.69,27.69,0,0,0-7.65-1.08c-4,0-7,.66-9,2a6.3,6.3,0,0,0-3,5.45,4.9,4.9,0,0,0,1.71,3.86A12.22,12.22,0,0,0,1165,1907c1.75.58,4.09,1.21,7.11,2a78.59,78.59,0,0,1,10.08,3,17.22,17.22,0,0,1,6.74,4.7,12.38,12.38,0,0,1,2.81,8.52,14.39,14.39,0,0,1-2.5,8.27,16.72,16.72,0,0,1-7.52,5.91A30.17,30.17,0,0,1,1169.39,1941.51Z" transform="translate(-757.71 -1058.46)"/></svg>