<svg id="Layer_1" data-name="Layer 1" xmlns="http://www.w3.org/2000/svg" viewBox="0 0 1562.5 883.05"><defs><style>.cls-1{fill:#d8bb93;fill-rule:evenodd;}.cls-2{fill:#fff;}</style></defs><title>logo2</title><polygon class="cls-1" points="655.94 249.65 886.48 249.65 895.29 237.57 647.13 237.57 655.94 249.65"/><path class="cls-1" d="M4451,1268a13.59,13.59,0,1,1,13.59-13.57A13.58,13.58,0,0,1,4451,1268m-124.42,18.32h248.83l-62.21-36-62.2-36-62.21,36Z" transform="translate(-3679.79 -1058.46)"/><path class="cls-1" d="M4411.14,1499.65V1525a189.31,189.31,0,0,0,21.33,3.21V1331.48h4.85l8.65-11.9h-48.32l8.65,11.9h4.84Z" transform="translate(-3679.79 -1058.46)"/><path class="cls-1" d="M4469.52,1503.33v24.86a189.31,189.31,0,0,0,21.33-3.21v-193.5h4.85l8.64-11.9H4456l8.64,11.9h4.85Z" transform="translate(-3679.79 -1058.46)"/><path class="cls-1" d="M4310.76,1551.68a12.85,12.85,0,0,1,9-3.79v0a12.72,12.72,0,1,1-9,21.7,12.63,12.63,0,0,1,0-18m31.95-14a32.17,32.17,0,0,0-22.94-9.52l0,0a32.63,32.63,0,0,0-18.34,5.61,250.17,250.17,0,0,1-67-325.61L4213,1196a274.83,274.83,0,0,0,74.88,358.55,32.45,32.45,0,1,0,54.82-16.8Z" transform="translate(-3679.79 -1058.46)"/><path class="cls-1" d="M4702.48,1339.71a12.72,12.72,0,1,1,23.28-3.1,12.6,12.6,0,0,1-15.57,9,12.71,12.71,0,0,1-7.73-5.9Zm-82.23,177.8A249.15,249.15,0,0,1,4451,1583.45v24.74A275,275,0,0,0,4724.14,1364a30.16,30.16,0,0,0,5.57-2.58,32.46,32.46,0,1,0-44.36-11.85l0,0a32.34,32.34,0,0,0,14,13A249.47,249.47,0,0,1,4620.25,1517.51Z" transform="translate(-3679.79 -1058.46)"/><path class="cls-1" d="M4330.79,1112.36a12.79,12.79,0,1,1,1.24-9.64,12.67,12.67,0,0,1-1.24,9.64Zm195.09-17.69a249.22,249.22,0,0,1,141.75,113.6l21.35-12.35a274.81,274.81,0,0,0-348-114.45,32.44,32.44,0,1,0,6.9,40.79v0a32.5,32.5,0,0,0,4.27-18.69A249.53,249.53,0,0,1,4525.88,1094.67Z" transform="translate(-3679.79 -1058.46)"/><path class="cls-1" d="M4330.07,1454.24a171,171,0,1,1,241.85,0,174.29,174.29,0,0,1-22.67,19V1331.48h4.82l8.65-11.9H4514.4l8.65,11.9h4.85v181.89a195.95,195.95,0,0,0,61.48-41.64,195.55,195.55,0,1,0-236.64,30.91,198.1,198.1,0,0,0,21.35,10.73V1331.48h4.85l8.65-11.9h-48.32l8.65,11.9h4.82v141.81a174.29,174.29,0,0,1-22.67-19" transform="translate(-3679.79 -1058.46)"/><path class="cls-2" d="M5242.28,1686.49v144.08h-26.75v-61.75H5141v61.75h-26.76V1686.49H5141V1746h74.52v-59.5Zm-215.72,146.15q-21.84,0-39.42-9.6a70.29,70.29,0,0,1-27.59-26.45c-6.65-11.22-10-23.95-10-38s3.36-26.86,10.09-38.09a71,71,0,0,1,27.69-26.45q17.58-9.6,39.42-9.56a82.36,82.36,0,0,1,32.31,6.15,66.25,66.25,0,0,1,24.7,17.93l-17.3,16.25q-15.61-16.9-38.48-16.88a53.85,53.85,0,0,0-26.55,6.49,46.82,46.82,0,0,0-18.34,18,55.27,55.27,0,0,0,0,52.27,46.82,46.82,0,0,0,18.34,18,53.85,53.85,0,0,0,26.55,6.49q22.86,0,38.48-17.05l17.3,16.47a65.81,65.81,0,0,1-24.81,17.88A82.91,82.91,0,0,1,5026.56,1832.64Zm-100.68-24.49v22.42H4817.82V1686.49H4923v22.45h-78.42v37.46h69.59v22h-69.59v39.75Zm-207.52-99h-47.73v-22.66h122.24v22.66h-47.73v121.42h-26.78Zm-147.59,28.61q0-13.79-9.07-21.21t-26.55-7.4h-31.28v57.42h31.28c11.67,0,20.53-2.53,26.55-7.53S4570.77,1747,4570.77,1737.76Zm.6,92.81L4542,1788.36a46.57,46.57,0,0,1-5.55.21h-32.53v42h-26.76V1686.49h59.29q18.72,0,32.62,6.19c9.26,4.12,16.37,10,21.3,17.67s7.41,16.84,7.41,27.41c0,10.81-2.66,20.16-7.94,28s-12.84,13.64-22.74,17.51l33.14,47.32Zm-128.86-22.42v22.42H4334.44V1686.49h105.18v22.45H4361.2v37.46h69.59v22H4361.2v39.75Zm-184.66-28.44v50.86h-26.76v-50.44l-56.61-93.64h28.61l42.21,70.18,42.62-70.18h26.33Zm-87.09-93.22L4123,1830.57h-28.4L4059,1724l-36.22,106.62h-28.63l-47.73-144.08h27.77L4010,1796l37.25-109.52H4072l36.45,110.1,36.84-110.1Zm-277.28,89.73-27.18-63-27,63Zm8.85,21h-72l-14.2,33.35H3788.5l64.85-144.08h26.34l65,144.08h-28Zm-222.54-110.73h26.78v121.45h75.32v22.63h-102.1Z" transform="translate(-3679.79 -1058.46)"/><path class="cls-2" d="M4852.38,1932.15v8.56H4811v-55.17h40.3v8.6h-30.05v14.35h26.66v8.44h-26.66v15.22Zm-84.79-27c0-3.53-1.14-6.24-3.45-8.11s-5.72-2.86-10.18-2.86h-12v22h12c4.46,0,7.85-1,10.18-2.91S4767.59,1908.7,4767.59,1905.16Zm.26,35.55-11.28-16.13c-.47,0-1.18.08-2.14.08H4742v16h-10.25v-55.17h22.7a30.47,30.47,0,0,1,12.5,2.37,18.13,18.13,0,0,1,8.17,6.77,19,19,0,0,1,2.84,10.48,18.58,18.58,0,0,1-3,10.73,18,18,0,0,1-8.71,6.7l12.7,18.12Zm-69.18-8.56v8.56h-41.39v-55.17h40.29v8.6h-30v14.35h26.65v8.44h-26.65v15.22Zm-77.82-46.61v55.17h-10.27v-23.66h-28.52v23.66h-10.27v-55.17h10.27v22.78h28.52v-22.78Zm-107.26,0v55.17h-8.44l-30.41-37.38v37.38h-10.19v-55.17H4473l30.43,37.38v-37.38Zm-97.31,34.39-10.4-24.16-10.34,24.16Zm3.4,8h-27.61l-5.44,12.76h-10.56l24.84-55.17H4411l24.93,55.17H4425.2Zm-80.6-15.47h9.71v22a31.23,31.23,0,0,1-9.94,5.19,38.05,38.05,0,0,1-11.68,1.8,31.45,31.45,0,0,1-15.22-3.66,27.44,27.44,0,0,1-10.65-10.15,29.45,29.45,0,0,1,0-29.15A27.41,27.41,0,0,1,4312,1888.4a31.81,31.81,0,0,1,15.34-3.65A33.4,33.4,0,0,1,4340,1887a24.76,24.76,0,0,1,9.54,6.7l-6.46,6.32a20.81,20.81,0,0,0-15.22-6.32,21.65,21.65,0,0,0-10.38,2.45,17.88,17.88,0,0,0-7.1,6.86,19.8,19.8,0,0,0-2.54,10.11,19.22,19.22,0,0,0,2.54,9.89,18.45,18.45,0,0,0,7.1,7,20.61,20.61,0,0,0,10.3,2.53,22.34,22.34,0,0,0,11.35-2.83Zm-99.9,20a19.83,19.83,0,0,0,9.92-2.49,18,18,0,0,0,6.94-6.9,20,20,0,0,0,2.52-10,19.71,19.71,0,0,0-2.52-10,17.84,17.84,0,0,0-6.94-7,21,21,0,0,0-19.86,0,17.93,17.93,0,0,0-6.95,7,19.92,19.92,0,0,0-2.53,10,20.2,20.2,0,0,0,2.53,10,18.14,18.14,0,0,0,6.95,6.9A19.8,19.8,0,0,0,4239.18,1932.52Zm0,9a31.37,31.37,0,0,1-15.22-3.66,27.15,27.15,0,0,1-10.66-10.19,29.36,29.36,0,0,1,0-29.07A27.15,27.15,0,0,1,4224,1888.4a33.56,33.56,0,0,1,30.44,0,27.42,27.42,0,0,1,10.64,10.15,29.51,29.51,0,0,1,0,29.15,27.42,27.42,0,0,1-10.64,10.15A31.48,31.48,0,0,1,4239.18,1941.51Zm-93.62-56h10.25v46.52h28.86v8.65h-39.11Zm-54.1,56a41.78,41.78,0,0,1-12.32-1.8,25.56,25.56,0,0,1-9.44-4.82l3.55-7.94a28.65,28.65,0,0,0,8.32,4.37,30.52,30.52,0,0,0,9.89,1.7c4.1,0,7.18-.66,9.19-2a6,6,0,0,0,3-5.19,5.07,5.07,0,0,0-1.69-3.91,11.93,11.93,0,0,0-4.3-2.41c-1.75-.58-4.12-1.21-7.11-2a83,83,0,0,1-10.21-3,16.93,16.93,0,0,1-6.69-4.7c-1.87-2.12-2.81-5-2.81-8.65a14.84,14.84,0,0,1,2.47-8.31,16.76,16.76,0,0,1,7.51-6,30.77,30.77,0,0,1,12.27-2.2A39.93,39.93,0,0,1,4103,1886a29.43,29.43,0,0,1,8.45,3.62l-3.23,8a33.41,33.41,0,0,0-7.56-3.24,27.81,27.81,0,0,0-7.66-1.08c-4.05,0-7.07.66-9,2a6.3,6.3,0,0,0-3,5.45,4.94,4.94,0,0,0,1.71,3.86,12.05,12.05,0,0,0,4.3,2.37c1.72.58,4.09,1.21,7.09,2a80.5,80.5,0,0,1,10.1,3,17.36,17.36,0,0,1,6.74,4.7,12.47,12.47,0,0,1,2.78,8.52,14.59,14.59,0,0,1-2.47,8.27,17,17,0,0,1-7.53,5.91A30.14,30.14,0,0,1,4091.46,1941.51Z" transform="translate(-3679.79 -1058.46)"/></svg>